<?xml version="1.0" encoding="utf-8" standalone="no"?>
<!DOCTYPE svg PUBLIC "-//W3C//DTD SVG 1.1//EN"
  "http://www.w3.org/Graphics/SVG/1.1/DTD/svg11.dtd">
<svg xmlns:xlink="http://www.w3.org/1999/xlink" width="543.169164pt" height="457.92pt" viewBox="0 0 543.169164 457.92" xmlns="http://www.w3.org/2000/svg" version="1.1">
 <metadata>
  <rdf:RDF xmlns:dc="http://purl.org/dc/elements/1.1/" xmlns:cc="http://creativecommons.org/ns#" xmlns:rdf="http://www.w3.org/1999/02/22-rdf-syntax-ns#">
   <cc:Work>
    <dc:type rdf:resource="http://purl.org/dc/dcmitype/StillImage"/>
    <dc:date>2025-11-28T18:49:25.441374</dc:date>
    <dc:format>image/svg+xml</dc:format>
    <dc:creator>
     <cc:Agent>
      <dc:title>Matplotlib v3.6.3, https://matplotlib.org/</dc:title>
     </cc:Agent>
    </dc:creator>
   </cc:Work>
  </rdf:RDF>
 </metadata>
 <defs>
  <style type="text/css">*{stroke-linejoin: round; stroke-linecap: butt}</style>
 </defs>
 <g id="figure_1">
  <g id="patch_1">
   <path d="M 0 457.92 
L 543.169164 457.92 
L 543.169164 0 
L 0 0 
z
" style="fill: #ffffff"/>
  </g>
  <g id="axes_1">
   <g id="patch_2">
    <path d="M 318.309909 113.316727 
L 318.292596 27.361574 
L 468.589121 27.36 
L 468.665193 70.332068 
L 468.652077 113.321449 
L 318.309909 113.316727 
L 318.309909 113.316727 
" clip-path="url(#p8eccdfa603)" style="fill: none; stroke: #000000; stroke-width: 0.5; stroke-linejoin: miter"/>
   </g>
   <g id="patch_3">
    <path d="M 319.249517 321.176218 
L 317.941938 321.037409 
L 308.505713 318.000271 
L 237.251251 295.968533 
L 237.523316 295.730337 
L 237.822033 294.851399 
L 237.850905 294.381115 
L 237.668788 293.943034 
L 238.12297 293.221784 
L 238.775927 292.702638 
L 239.204569 291.963065 
L 239.428366 291.148029 
L 240.24207 290.642284 
L 242.492741 291.029463 
L 243.402452 290.854236 
L 243.610206 290.531587 
L 243.696246 289.373725 
L 243.974301 289.089899 
L 244.77279 288.624026 
L 245.016744 288.34702 
L 245.075503 287.878524 
L 244.764396 286.236951 
L 244.822106 285.81777 
L 244.737115 285.546011 
L 244.135887 284.812051 
L 243.387762 284.468942 
L 241.436657 284.349326 
L 240.588327 284.0655 
L 239.945128 283.308981 
L 240.017528 282.56243 
L 240.342799 281.75607 
L 240.455071 280.824324 
L 240.088353 279.290301 
L 239.416824 278.647102 
L 239.370132 278.326028 
L 239.574738 277.730046 
L 239.915224 277.312439 
L 239.61566 276.91162 
L 239.297208 276.386988 
L 239.501814 276.276816 
L 241.084629 276.079554 
L 241.468659 275.8356 
L 242.26505 274.581206 
L 242.468083 274.052377 
L 243.472228 273.011507 
L 243.549874 272.728731 
L 243.431831 271.974835 
L 243.691524 271.743472 
L 243.801172 270.514784 
L 244.429681 269.647043 
L 244.103885 269.020633 
L 244.290654 268.798714 
L 244.290654 268.295067 
L 243.952266 267.949335 
L 243.829502 266.552765 
L 244.392957 266.091613 
L 244.363578 265.899074 
L 243.76812 265.24853 
L 243.696246 264.998805 
L 243.830552 264.521915 
L 244.165791 264.2234 
L 245.370871 263.461634 
L 245.957934 262.698819 
L 246.136309 261.782812 
L 246.359802 261.381994 
L 246.705534 261.081904 
L 247.485137 260.877822 
L 249.677573 259.577785 
L 250.098328 259.483876 
L 250.778776 258.749916 
L 252.358967 257.439385 
L 252.228333 256.696507 
L 251.291341 256.092655 
L 250.716869 255.7805 
L 248.603652 254.381831 
L 247.62259 253.757519 
L 246.988835 253.607475 
L 246.837217 253.207705 
L 246.814657 252.98736 
L 247.026609 252.348358 
L 246.777409 252.121193 
L 246.673007 251.68365 
L 245.897601 250.933951 
L 245.868222 250.791251 
L 245.868222 250.110279 
L 245.700864 249.925084 
L 244.296425 247.546403 
L 243.715133 247.473479 
L 243.2629 247.239493 
L 242.990091 246.829231 
L 242.869426 245.965687 
L 242.453393 245.326686 
L 241.809145 245.097946 
L 241.659625 244.845074 
L 241.394161 241.920776 
L 241.18903 241.224065 
L 241.775044 240.476989 
L 241.691103 240.178474 
L 241.18903 239.596657 
L 241.260905 239.303388 
L 241.768749 239.221021 
L 242.415095 238.999101 
L 242.627046 237.683849 
L 242.522645 236.822404 
L 242.190028 235.246935 
L 242.219932 234.668266 
L 242.010604 234.157274 
L 241.329632 233.038235 
L 240.571014 231.140641 
L 241.024821 230.099772 
L 240.891564 229.166976 
L 241.055774 228.699529 
L 240.055826 226.358098 
L 239.992345 225.767887 
L 240.130323 224.260095 
L 240.588327 223.471573 
L 240.40628 223.03508 
L 239.560049 222.134287 
L 239.247368 221.637985 
L 239.024924 221.06771 
L 238.9882 220.46963 
L 239.351245 220.163245 
L 239.45827 219.684256 
L 239.419972 218.769823 
L 239.81397 218.354314 
L 241.232575 217.725805 
L 243.196272 217.330758 
L 244.724 217.808173 
L 245.233417 218.002286 
L 245.830448 217.96189 
L 246.769015 217.595697 
L 247.258496 217.660751 
L 247.683448 217.953496 
L 248.049641 218.3753 
L 248.73481 219.513751 
L 249.404765 220.065139 
L 249.896869 220.237743 
L 250.453504 220.26345 
L 251.508014 220.123373 
L 252.25509 219.777116 
L 253.108665 217.376401 
L 253.996867 216.243196 
L 254.019426 214.949454 
L 254.053527 199.206302 
L 361.360147 199.277652 
L 361.342834 321.171776 
L 319.249517 321.176218 
L 319.249517 321.176218 
" clip-path="url(#p8eccdfa603)" style="fill: none; stroke: #000000; stroke-width: 0.5; stroke-linejoin: miter"/>
   </g>
   <g id="patch_4">
    <path d="M 361.366443 113.321449 
L 511.671362 113.326695 
L 511.856032 179.130741 
L 511.934202 199.277652 
L 361.360147 199.277652 
L 361.366443 113.321449 
L 361.366443 113.321449 
" clip-path="url(#p8eccdfa603)" style="fill: none; stroke: #000000; stroke-width: 0.5; stroke-linejoin: miter"/>
   </g>
   <g id="patch_5">
    <path d="M 356.638558 429.344134 
L 356.727746 429.116793 
L 356.888633 429.162262 
L 356.961207 429.431573 
L 356.730369 429.892374 
L 356.582598 430.010416 
L 356.449691 430.170429 
L 356.342141 430.330442 
L 356.266944 430.480836 
L 356.222101 430.497633 
L 356.152697 430.526505 
L 356.083848 430.554267 
L 356.067222 430.56 
L 356.155897 430.410885 
L 356.567733 429.690391 
L 356.638558 429.344134 
" clip-path="url(#p8eccdfa603)" style="fill: none; stroke: #000000; stroke-width: 0.5; stroke-linejoin: miter"/>
   </g>
   <g id="patch_6">
    <path d="M 357.706184 428.259895 
L 358.131136 428.263392 
L 358.577947 428.384058 
L 358.839389 428.530955 
L 359.007271 428.940167 
L 359.002497 429.031829 
L 358.762303 429.205045 
L 358.356981 429.453791 
L 357.942776 429.691431 
L 357.531901 429.929072 
L 357.390132 429.991112 
L 357.484964 429.613445 
L 357.518191 428.464501 
L 357.706184 428.259895 
" clip-path="url(#p8eccdfa603)" style="fill: none; stroke: #000000; stroke-width: 0.5; stroke-linejoin: miter"/>
   </g>
   <g id="patch_7">
    <path d="M 341.190221 412.6678 
L 341.786216 413.046032 
L 342.204725 413.707932 
L 342.038986 413.708573 
L 341.551889 413.108446 
L 341.056993 412.783256 
L 340.471511 412.511506 
L 340.112336 412.451872 
L 339.918133 412.293209 
L 340.083383 412.243241 
L 340.498143 412.363995 
L 341.190221 412.6678 
" clip-path="url(#p8eccdfa603)" style="fill: none; stroke: #000000; stroke-width: 0.5; stroke-linejoin: miter"/>
   </g>
   <g id="patch_8">
    <path d="M 328.033883 405.443657 
L 328.128287 405.202167 
L 328.013459 406.038231 
L 328.107828 407.032032 
L 328.513105 407.421332 
L 329.469848 407.707641 
L 329.390708 408.05222 
L 328.225533 407.657281 
L 327.890054 407.328757 
L 327.838894 406.457071 
L 327.881739 405.942931 
L 328.033883 405.443657 
" clip-path="url(#p8eccdfa603)" style="fill: none; stroke: #000000; stroke-width: 0.5; stroke-linejoin: miter"/>
   </g>
   <g id="patch_9">
    <path d="M 311.36379 393.343973 
L 311.528165 393.675195 
L 311.176516 393.592631 
L 311.035599 393.344231 
L 310.894705 393.116734 
L 311.058566 392.929986 
L 311.36379 393.343973 
" clip-path="url(#p8eccdfa603)" style="fill: none; stroke: #000000; stroke-width: 0.5; stroke-linejoin: miter"/>
   </g>
   <g id="patch_10">
    <path d="M 290.886152 376.283737 
L 290.471124 376.230674 
L 290.179593 376.380147 
L 290.009618 376.084026 
L 289.686444 376.045229 
L 289.316559 375.641132 
L 289.024273 375.479935 
L 288.746908 375.549051 
L 288.531477 375.441694 
L 288.116787 375.469708 
L 287.869944 375.362981 
L 287.855346 375.065675 
L 287.283033 374.988037 
L 287.235869 374.772578 
L 286.681952 374.518279 
L 286.108763 374.237734 
L 285.814965 373.996218 
L 285.583626 374.010641 
L 285.366555 373.863216 
L 285.950966 373.510338 
L 286.589893 373.14379 
L 286.920235 372.724119 
L 287.058388 372.648921 
L 287.154571 372.4653 
L 287.242009 372.245829 
L 287.34781 372.056962 
L 287.453611 371.794646 
L 287.371419 371.592663 
L 287.147576 371.390679 
L 287.074127 370.493559 
L 287.143204 369.559714 
L 287.321579 368.657348 
L 287.574276 367.855535 
L 287.712429 367.56349 
L 287.909166 367.277566 
L 288.160989 367.025743 
L 288.467899 366.842121 
L 288.820745 367.115113 
L 289.268537 367.114017 
L 289.73058 366.776162 
L 290.100239 366.505987 
L 290.516831 366.438522 
L 291.103326 366.450844 
L 291.457987 366.396677 
L 291.720832 366.178062 
L 291.921558 365.974539 
L 292.214984 365.87949 
L 292.153539 366.068504 
L 291.844694 366.339775 
L 291.937726 366.690842 
L 292.184938 366.933375 
L 292.231545 367.040965 
L 292.154487 367.216633 
L 292.124276 367.418518 
L 292.001194 367.634448 
L 292.125918 367.902976 
L 292.034266 368.226408 
L 292.838684 369.127866 
L 293.691942 370.726545 
L 293.306496 371.469686 
L 293.277364 372.170217 
L 292.986717 373.248878 
L 292.66332 373.559441 
L 292.787729 373.842176 
L 292.434174 374.260418 
L 292.327315 374.678231 
L 292.066225 374.974845 
L 291.959437 375.365547 
L 292.038208 375.82445 
L 292.284779 375.905318 
L 292.454582 376.147761 
L 292.239566 376.269436 
L 291.993225 376.161993 
L 291.683892 376.277625 
L 291.241042 376.635344 
L 290.886152 376.283737 
" clip-path="url(#p8eccdfa603)" style="fill: none; stroke: #000000; stroke-width: 0.5; stroke-linejoin: miter"/>
   </g>
   <g id="patch_11">
    <path d="M 246.94677 298.967359 
L 317.941938 321.037409 
L 319.249517 321.176218 
L 363.04365 321.171776 
L 361.496282 332.202099 
L 361.773344 332.495263 
L 367.026426 336.235883 
L 367.848729 336.530158 
L 368.921999 336.798337 
L 369.980833 337.391328 
L 370.971373 338.155332 
L 371.20124 338.452383 
L 371.380582 339.332431 
L 372.316708 348.865822 
L 372.117934 349.39274 
L 371.82477 350.079566 
L 371.25843 356.28099 
L 370.672101 362.425779 
L 370.513859 362.537937 
L 369.015834 362.571806 
L 368.640495 362.572362 
L 370.544397 376.307218 
L 370.733177 376.713095 
L 370.697642 376.964617 
L 369.982499 379.052857 
L 369.975836 379.615866 
L 371.653202 383.965024 
L 372.234533 385.491366 
L 372.241752 385.796191 
L 370.091325 387.542406 
L 369.345644 387.408594 
L 367.510036 386.978287 
L 364.942072 386.461918 
L 362.915463 386.415833 
L 361.258641 386.581293 
L 360.526286 386.984949 
L 359.061575 388.398579 
L 359.233143 388.859424 
L 362.077613 394.94758 
L 362.615081 395.310148 
L 364.375732 396.194638 
L 364.628364 396.551654 
L 364.842685 397.499441 
L 365.127521 397.895324 
L 367.465062 399.658751 
L 367.127479 400.177896 
L 367.119705 400.796984 
L 368.030291 401.711457 
L 369.677675 402.883558 
L 369.852019 403.615914 
L 369.742637 404.487078 
L 369.548305 405.715814 
L 370.153511 407.418721 
L 369.927531 407.864019 
L 369.204059 408.75073 
L 369.045817 409.292085 
L 369.08968 409.769587 
L 369.607715 410.680728 
L 371.519946 413.23259 
L 372.037425 413.644019 
L 372.684274 413.627362 
L 373.188983 413.559068 
L 373.435508 413.924968 
L 373.827245 414.595314 
L 373.473819 415.657303 
L 373.132904 416.737791 
L 373.092927 418.12699 
L 372.948011 418.426817 
L 362.2936 426.29006 
L 359.567394 428.163424 
L 359.369717 428.522232 
L 358.994155 427.825325 
L 358.398698 427.516666 
L 358.569204 427.681051 
L 358.705608 427.943367 
L 357.811985 427.809586 
L 357.202538 428.441767 
L 356.997931 428.464501 
L 356.925357 428.150597 
L 357.226146 426.637034 
L 356.866773 424.950342 
L 355.611238 423.430561 
L 354.671078 422.81437 
L 354.043947 421.941273 
L 353.391874 421.426769 
L 352.765258 421.214659 
L 352.151323 421.148185 
L 351.988231 420.991671 
L 352.226192 420.935409 
L 353.153594 421.214295 
L 353.040396 420.822615 
L 352.877409 420.73322 
L 353.002474 420.53161 
L 352.876903 420.296645 
L 352.187586 420.2302 
L 351.973708 419.693115 
L 351.485358 419.984819 
L 351.35932 419.593049 
L 350.99559 419.504073 
L 350.54539 420.008672 
L 350.483245 420.243879 
L 350.646404 420.355555 
L 351.14781 420.433125 
L 351.223248 420.567351 
L 351.111039 420.858577 
L 351.738135 421.271846 
L 350.960879 420.948363 
L 349.368966 420.682544 
L 348.441581 420.751687 
L 348.141339 420.953923 
L 348.091903 421.166785 
L 347.439547 421.078838 
L 345.502374 420.191932 
L 344.49508 419.197754 
L 343.96083 418.439661 
L 343.632906 416.939256 
L 343.311161 416.482785 
L 342.780409 415.194814 
L 342.042893 414.225275 
L 342.124369 414.003854 
L 342.932552 415.14235 
L 343.381112 415.432647 
L 342.842406 414.234019 
L 342.826264 413.792022 
L 342.655938 412.871804 
L 341.599987 411.82318 
L 340.89086 411.62382 
L 340.360982 411.639559 
L 339.926412 411.96483 
L 339.533764 412.407257 
L 338.922316 411.955641 
L 335.688259 411.18833 
L 334.692467 410.973916 
L 333.638074 410.465316 
L 332.197686 408.889978 
L 330.885814 408.074723 
L 330.120712 407.907708 
L 329.648849 407.92334 
L 329.604492 407.714271 
L 331.451904 407.873893 
L 331.726859 407.675113 
L 331.309334 407.335829 
L 330.576598 406.456196 
L 330.698138 406.064471 
L 330.298543 405.889594 
L 330.135907 405.70947 
L 329.475746 406.142291 
L 329.2554 406.163277 
L 328.951988 405.89484 
L 328.871545 404.828089 
L 328.250447 404.506371 
L 328.219416 403.163323 
L 328.022206 402.479549 
L 327.40586 401.085936 
L 327.397422 400.38621 
L 327.614382 400.034273 
L 328.668687 399.520563 
L 328.62147 399.176055 
L 328.367898 399.117471 
L 328.074104 399.259122 
L 327.907971 399.520563 
L 328.215755 398.640056 
L 329.095388 398.20024 
L 328.368772 398.157395 
L 327.990163 397.995634 
L 327.942946 397.679106 
L 328.215755 397.15972 
L 327.90972 397.118624 
L 327.703364 396.951616 
L 327.644781 396.709411 
L 327.775064 396.439226 
L 328.039129 396.694547 
L 328.163292 396.593992 
L 328.268218 396.175161 
L 328.599611 396.155925 
L 329.67598 396.014274 
L 329.948789 395.818412 
L 329.842988 395.398706 
L 329.413664 395.554347 
L 328.15892 395.090922 
L 327.629042 395.119777 
L 327.891358 395.346243 
L 327.783808 395.44942 
L 327.469029 395.403078 
L 326.454741 394.857461 
L 324.176964 394.459615 
L 323.421494 394.510329 
L 322.626677 394.679086 
L 322.626677 394.519073 
L 323.50631 394.22528 
L 323.219511 393.546756 
L 323.098846 393.042235 
L 322.847023 392.901459 
L 322.59345 392.908454 
L 322.47978 393.118306 
L 322.3801 394.073136 
L 321.733054 394.825983 
L 322.233203 394.856586 
L 322.332883 395.332253 
L 322.032094 395.959188 
L 321.827488 396.136688 
L 321.637746 395.879619 
L 321.03442 395.220331 
L 320.546512 395.119777 
L 320.118937 394.679086 
L 320.509788 394.412398 
L 320.706525 394.385292 
L 319.901215 393.702396 
L 319.400191 393.446201 
L 318.512605 393.621255 
L 318.113247 394.027254 
L 317.127345 394.062601 
L 317.337696 393.711486 
L 317.149478 393.489311 
L 316.834686 393.322248 
L 316.624118 393.34021 
L 316.320058 393.01641 
L 315.692438 392.886838 
L 315.127911 392.203927 
L 314.646697 391.722418 
L 313.997768 391.55612 
L 313.725384 391.094002 
L 313.327875 390.706953 
L 312.929559 389.894243 
L 312.235972 389.226843 
L 312.068462 388.262839 
L 311.810518 388.020634 
L 311.373325 387.995277 
L 311.114506 387.481137 
L 310.915146 386.789498 
L 309.954195 386.044521 
L 309.676141 385.676404 
L 309.535364 385.212105 
L 309.96906 384.355206 
L 309.209218 384.48549 
L 306.787333 383.747006 
L 304.907738 382.954706 
L 304.16246 382.785882 
L 303.440667 381.078026 
L 303.039548 380.124925 
L 299.605833 377.200977 
L 298.983078 376.417152 
L 299.075423 376.268694 
L 299.583318 376.174786 
L 300.16544 375.898141 
L 300.752153 376.566172 
L 300.878065 376.487478 
L 300.989112 376.04941 
L 300.966378 375.818572 
L 300.726796 375.41548 
L 299.506606 375.445747 
L 298.598606 374.59475 
L 297.244286 374.162598 
L 297.13744 373.751523 
L 296.844068 373.636948 
L 296.890192 373.421167 
L 295.935818 372.504664 
L 295.627658 372.100807 
L 295.118589 371.953107 
L 294.317234 371.899928 
L 294.224596 371.765249 
L 294.625144 371.454896 
L 294.17584 369.672669 
L 293.897991 369.5787 
L 293.944094 369.37645 
L 294.350771 368.822607 
L 294.325413 368.597015 
L 294.08169 368.163507 
L 293.710278 367.799991 
L 293.787749 367.597975 
L 293.016457 367.135915 
L 293.305612 366.290695 
L 293.352014 365.752331 
L 292.749712 364.408655 
L 292.233536 364.093975 
L 290.946913 364.163326 
L 290.757917 364.386844 
L 290.815626 364.560847 
L 290.737806 364.812671 
L 290.56118 364.718237 
L 290.228913 364.334381 
L 289.058543 363.777064 
L 288.873777 363.107007 
L 289.775981 361.239928 
L 289.777784 360.747107 
L 289.57587 360.477508 
L 288.878585 360.221062 
L 288.645348 360.005884 
L 288.612173 359.125662 
L 287.02252 357.927981 
L 286.210233 356.180728 
L 285.851282 356.221278 
L 285.280761 355.440997 
L 285.091893 354.61033 
L 284.186903 353.437778 
L 283.748836 352.200522 
L 283.509435 351.895957 
L 283.146384 351.677639 
L 282.995266 351.776559 
L 282.652242 351.630087 
L 282.217475 351.780146 
L 281.858403 351.61998 
L 281.74699 351.323475 
L 282.009281 350.958477 
L 281.897072 350.580619 
L 282.198549 349.408606 
L 281.572066 348.060968 
L 281.719196 346.91524 
L 281.709078 345.701556 
L 281.471468 345.150649 
L 280.511866 344.139312 
L 279.913587 343.899045 
L 279.710023 343.859726 
L 279.524102 344.049639 
L 279.397865 343.915483 
L 279.659926 343.495787 
L 279.67822 341.931059 
L 279.500192 341.087945 
L 279.185413 340.487242 
L 278.224442 339.48596 
L 276.695551 338.256312 
L 274.689531 335.288925 
L 273.63774 332.23753 
L 274.023093 331.573675 
L 274.314242 329.367292 
L 274.259182 328.653155 
L 273.596001 327.120856 
L 273.592179 326.810503 
L 273.765085 326.768736 
L 273.991238 327.225821 
L 274.476259 328.354863 
L 274.618784 328.434674 
L 274.756646 328.270315 
L 275.205207 327.547198 
L 275.359382 324.839925 
L 274.914578 324.506277 
L 274.434898 323.863022 
L 273.894986 323.5301 
L 273.279827 323.494685 
L 273.31322 323.696393 
L 273.899123 323.961088 
L 273.806359 324.123614 
L 273.061948 323.80619 
L 272.172071 323.368018 
L 271.92276 322.868356 
L 271.635961 322.611287 
L 271.401626 322.017578 
L 270.78256 322.177591 
L 270.475651 322.227431 
L 270.726599 322.558823 
L 271.477925 322.94022 
L 271.218006 323.023078 
L 270.424062 322.821139 
L 264.610088 321.852782 
L 264.405593 321.424872 
L 263.827232 321.262618 
L 263.034499 321.210612 
L 262.578429 320.862689 
L 262.720441 320.738006 
L 263.117747 320.794675 
L 263.313058 320.623295 
L 262.743044 318.862578 
L 262.767888 318.201248 
L 262.232795 317.515472 
L 261.072154 316.777054 
L 260.127566 316.405026 
L 259.761465 316.102041 
L 259.129565 316.079724 
L 257.58807 315.383609 
L 257.391333 314.998004 
L 256.217032 315.304914 
L 255.823558 314.970898 
L 255.723004 314.127116 
L 255.396858 313.958359 
L 255.339148 314.232916 
L 255.324283 315.598708 
L 255.631193 315.806812 
L 255.776341 315.745605 
L 255.970455 316.000926 
L 255.890886 316.05164 
L 255.715134 316.111098 
L 255.354362 316.491162 
L 255.287778 316.768831 
L 254.595045 317.232062 
L 254.295528 317.644414 
L 251.500454 317.580604 
L 250.428691 317.198643 
L 249.933108 316.807441 
L 249.334286 316.63318 
L 248.510915 316.139915 
L 247.880266 315.428349 
L 246.052373 314.556027 
L 245.631546 314.317844 
L 245.287497 314.26268 
L 245.00616 313.868381 
L 244.296285 313.65119 
L 241.940051 311.761026 
L 240.158052 311.756654 
L 239.963064 311.637738 
L 239.294158 311.113106 
L 238.610388 310.730125 
L 237.650312 310.596343 
L 237.361764 310.361134 
L 236.810901 309.693977 
L 234.854745 308.678722 
L 234.792686 307.684016 
L 234.842657 306.297038 
L 234.663316 305.785111 
L 234.332396 305.413659 
L 233.870995 305.127712 
L 233.851562 304.790685 
L 234.305744 304.134952 
L 234.375704 303.676327 
L 234.147502 302.837367 
L 233.772163 302.151651 
L 232.574521 300.761897 
L 232.631155 300.449855 
L 232.98484 300.061745 
L 233.426252 299.775799 
L 233.822134 299.379916 
L 234.036455 298.907966 
L 234.28409 297.292231 
L 234.605016 296.773086 
L 235.012004 296.348886 
L 235.449529 296.151778 
L 236.57277 296.231732 
L 237.365629 296.005178 
L 246.94677 298.967359 
L 246.94677 298.967359 
" clip-path="url(#p8eccdfa603)" style="fill: none; stroke: #000000; stroke-width: 0.5; stroke-linejoin: miter"/>
   </g>
   <g id="patch_12">
    <path d="M 240.529666 312.714982 
L 240.891662 313.384762 
L 240.603989 313.384762 
L 240.348668 313.285082 
L 240.14581 313.125943 
L 240.011155 312.944071 
L 239.540735 313.267594 
L 238.530819 312.828652 
L 237.764856 311.94727 
L 238.024549 310.95047 
L 238.688208 311.063266 
L 239.658777 311.795127 
L 240.529666 312.714982 
" clip-path="url(#p8eccdfa603)" style="fill: none; stroke: #000000; stroke-width: 0.5; stroke-linejoin: miter"/>
   </g>
   <g id="patch_13">
    <path d="M 254.003163 91.827283 
L 253.944929 216.454098 
L 253.108665 217.376401 
L 252.25509 219.777116 
L 251.508014 220.123373 
L 249.896869 220.237743 
L 249.404765 220.065139 
L 248.73481 219.513751 
L 248.531253 219.247238 
L 247.889628 218.167545 
L 247.258496 217.660751 
L 246.769015 217.595697 
L 246.381312 217.69118 
L 245.559214 218.018025 
L 244.946968 217.924641 
L 244.34574 217.606189 
L 242.81434 217.350694 
L 242.4791 217.461391 
L 241.232575 217.725805 
L 239.419972 218.769823 
L 239.38692 219.192151 
L 239.446728 219.927161 
L 239.351245 220.163245 
L 238.9882 220.46963 
L 239.024924 221.06771 
L 239.560049 222.134287 
L 240.542684 223.225521 
L 240.588327 223.471573 
L 240.507534 223.71133 
L 240.015429 224.578546 
L 240.055826 226.358098 
L 240.161801 226.792493 
L 241.055774 228.699529 
L 240.891564 229.166976 
L 241.024821 230.099772 
L 240.571014 231.140641 
L 241.329632 233.038235 
L 242.219932 234.668266 
L 242.241967 235.794126 
L 242.522645 236.822404 
L 242.612357 238.141853 
L 242.32276 239.06468 
L 241.768749 239.221021 
L 241.260905 239.303388 
L 241.18903 239.596657 
L 241.287661 239.796542 
L 241.691103 240.178474 
L 241.775044 240.476989 
L 241.693202 240.679497 
L 241.18903 241.224065 
L 241.41777 242.174698 
L 221.933469 227.086287 
L 193.827368 205.146184 
L 166.249571 184.417456 
L 125.983554 156.312404 
L 125.978832 143.011938 
L 125.967815 91.838825 
L 254.003163 91.827283 
L 254.003163 91.827283 
" clip-path="url(#p8eccdfa603)" style="fill: none; stroke: #000000; stroke-width: 0.5; stroke-linejoin: miter"/>
   </g>
   <g id="patch_14">
    <path d="M 229.651533 386.252532 
L 229.805828 386.546868 
L 229.931983 387.057855 
L 229.71613 387.633281 
L 229.726685 388.104304 
L 230.015075 388.529892 
L 230.087237 389.005584 
L 229.996544 389.435124 
L 230.079953 389.64861 
L 229.932541 389.888319 
L 229.660756 389.998889 
L 229.636648 390.164877 
L 229.436409 390.392282 
L 229.495211 390.62921 
L 229.389256 390.80855 
L 229.514364 391.164514 
L 229.382434 391.462983 
L 229.575122 391.806853 
L 229.495404 391.926483 
L 229.524066 392.081112 
L 229.361455 392.022662 
L 229.247459 391.94488 
L 228.995395 391.858525 
L 228.740789 391.991646 
L 228.526 392.065195 
L 228.402746 391.898942 
L 228.120271 391.949296 
L 227.970465 391.80773 
L 227.801774 391.166512 
L 227.406001 390.794187 
L 226.905694 390.638848 
L 226.516215 390.808899 
L 226.193223 390.85938 
L 225.980277 391.147005 
L 225.734395 390.899293 
L 225.861079 390.172076 
L 226.251153 389.990335 
L 227.547652 388.601226 
L 228.276452 387.653871 
L 227.945543 387.002521 
L 227.788706 386.253867 
L 227.903998 385.637582 
L 228.085489 384.952524 
L 228.378729 384.717969 
L 228.811276 384.545009 
L 229.302781 384.919844 
L 229.238644 385.338399 
L 229.471665 385.910381 
L 229.690987 386.037378 
L 229.651533 386.252532 
" clip-path="url(#p8eccdfa603)" style="fill: none; stroke: #000000; stroke-width: 0.5; stroke-linejoin: miter"/>
   </g>
   <g id="patch_15">
    <path d="M 221.294455 386.068696 
L 221.060787 386.071171 
L 220.984803 386.209201 
L 220.700199 386.280854 
L 220.477436 386.134679 
L 220.449697 386.009249 
L 220.512809 385.882822 
L 220.668286 385.858239 
L 220.78737 386.016994 
L 220.980815 385.923444 
L 221.22764 385.932229 
L 221.294455 386.068696 
" clip-path="url(#p8eccdfa603)" style="fill: none; stroke: #000000; stroke-width: 0.5; stroke-linejoin: miter"/>
   </g>
   <g id="patch_16">
    <path d="M 164.204903 372.058583 
L 164.109513 373.010339 
L 163.560289 373.665969 
L 163.151718 373.630857 
L 162.901485 373.782864 
L 162.746883 373.787599 
L 162.756174 374.019662 
L 162.549661 373.83238 
L 162.627934 373.578253 
L 162.867822 373.493461 
L 162.670983 372.996046 
L 162.56943 372.669985 
L 162.643111 372.29981 
L 162.515539 371.877726 
L 162.171502 371.578432 
L 162.421784 371.22746 
L 162.221173 370.635576 
L 162.010224 370.326077 
L 161.757067 370.085566 
L 161.32208 369.745056 
L 161.26434 369.387009 
L 161.139417 369.072221 
L 161.036583 368.726541 
L 161.110102 368.355808 
L 161.295013 367.972722 
L 161.725849 367.675906 
L 162.316347 367.498348 
L 162.593641 367.184551 
L 163.079084 367.111398 
L 163.46289 367.296861 
L 163.121491 367.636566 
L 162.865526 367.921697 
L 162.812173 368.252952 
L 162.963961 368.686925 
L 163.219738 369.077766 
L 163.557796 369.262843 
L 164.02817 369.858613 
L 164.222863 370.858695 
L 164.039155 371.271425 
L 164.204903 372.058583 
" clip-path="url(#p8eccdfa603)" style="fill: none; stroke: #000000; stroke-width: 0.5; stroke-linejoin: miter"/>
   </g>
   <g id="patch_17">
    <path d="M 246.434049 350.551581 
L 246.169897 350.584582 
L 245.848766 350.421528 
L 245.980507 350.208893 
L 245.923454 349.98014 
L 246.28217 349.996088 
L 246.320507 350.355607 
L 246.434049 350.551581 
" clip-path="url(#p8eccdfa603)" style="fill: none; stroke: #000000; stroke-width: 0.5; stroke-linejoin: miter"/>
   </g>
   <g id="patch_18">
    <path d="M 238.775927 292.702638 
L 238.009702 293.372808 
L 237.668788 293.943034 
L 237.850905 294.381115 
L 237.822033 294.851399 
L 237.523316 295.730337 
L 237.022511 296.146781 
L 236.57277 296.231732 
L 235.449529 296.151778 
L 235.012004 296.348886 
L 234.605016 296.773086 
L 234.102528 297.779173 
L 234.036455 298.907966 
L 233.822134 299.379916 
L 232.574521 300.761897 
L 233.772163 302.151651 
L 234.147502 302.837367 
L 234.375704 303.676327 
L 234.305744 304.134952 
L 233.851562 304.790685 
L 233.97649 305.223213 
L 234.468428 305.520264 
L 234.782692 306.032746 
L 234.861535 306.610746 
L 234.854745 308.678722 
L 234.850527 308.676191 
L 234.107298 308.408629 
L 233.615019 308.334306 
L 233.091261 307.960069 
L 232.975842 307.458171 
L 232.795719 307.342752 
L 232.671556 307.447678 
L 232.770361 307.962692 
L 233.171705 308.550279 
L 233.545942 308.726031 
L 234.47454 308.985724 
L 235.073495 309.436033 
L 235.289469 309.703595 
L 235.814719 309.805031 
L 236.519138 310.538219 
L 236.664004 310.884891 
L 236.973537 310.974953 
L 237.124805 311.23552 
L 237.566371 313.20114 
L 238.142591 314.114 
L 237.970337 314.536328 
L 237.21137 315.304914 
L 236.842379 316.026283 
L 236.589346 316.890859 
L 236.602234 319.838635 
L 236.110394 321.14362 
L 236.165645 322.347745 
L 235.820738 324.706685 
L 235.920336 325.613016 
L 236.353093 326.280079 
L 237.405483 327.287337 
L 237.019005 327.618023 
L 237.030372 328.06396 
L 237.258587 328.444318 
L 237.650312 328.709257 
L 239.43988 329.472805 
L 239.650625 329.960211 
L 239.790617 331.755748 
L 239.942711 332.075396 
L 239.86272 333.04602 
L 240.149385 333.686856 
L 239.757717 334.40191 
L 240.049467 335.276919 
L 239.908006 336.002992 
L 240.212038 336.657251 
L 240.957272 337.779066 
L 241.15835 338.672016 
L 241.366582 339.06167 
L 241.375004 339.368889 
L 241.206346 339.740858 
L 241.236839 340.201348 
L 241.389758 340.567426 
L 241.265261 341.861947 
L 240.929261 343.743457 
L 241.162058 344.028136 
L 240.61158 345.407475 
L 240.892849 345.939154 
L 241.117843 346.364586 
L 241.364705 346.590459 
L 241.362619 346.851171 
L 241.495469 347.171132 
L 241.926698 347.316267 
L 242.098235 347.773795 
L 242.44578 348.135783 
L 242.423073 348.597528 
L 243.221092 349.874765 
L 243.461033 350.384678 
L 244.574713 350.828462 
L 244.759687 351.437141 
L 245.046732 351.627508 
L 245.726239 351.688107 
L 246.132906 352.254407 
L 245.997482 352.816891 
L 246.401468 353.408659 
L 246.253297 353.416965 
L 246.119074 353.662125 
L 246.406119 353.882598 
L 246.488652 354.358826 
L 246.942993 354.634788 
L 247.11389 354.594069 
L 247.326221 354.681022 
L 247.621071 355.181611 
L 248.381852 355.249432 
L 248.711227 355.104895 
L 248.770327 354.925984 
L 248.635345 354.916508 
L 248.623649 354.711802 
L 248.835658 354.639862 
L 248.929572 354.629259 
L 249.325041 354.737331 
L 249.460405 354.808886 
L 249.848119 354.883409 
L 250.18365 355.145472 
L 250.54856 355.288814 
L 250.700593 355.672535 
L 250.978217 355.866868 
L 251.148902 356.040988 
L 251.467045 356.307513 
L 251.643981 356.302657 
L 251.685384 356.272024 
L 251.853048 356.34317 
L 251.882113 356.511811 
L 252.502649 357.086982 
L 252.52741 357.151308 
L 253.150524 357.410889 
L 253.571061 357.661573 
L 253.70578 358.030724 
L 253.923046 358.369418 
L 254.264293 358.437488 
L 254.433772 358.692506 
L 254.797688 358.791195 
L 255.039232 358.786183 
L 255.472018 359.216783 
L 255.818612 359.575819 
L 255.948861 359.607197 
L 256.139442 359.908548 
L 256.583354 360.173921 
L 257.120845 360.748807 
L 258.528702 361.511224 
L 258.513121 361.83195 
L 258.933593 361.982556 
L 259.841297 362.422654 
L 261.77587 364.394434 
L 262.732322 365.121183 
L 262.97862 365.627827 
L 263.017163 365.754346 
L 262.496167 366.285319 
L 262.297677 366.490857 
L 262.323903 366.729743 
L 262.688944 366.916421 
L 262.623875 367.234519 
L 262.989469 367.694568 
L 263.331456 367.67326 
L 263.330003 367.868351 
L 263.705273 368.410228 
L 263.956272 368.468319 
L 264.138776 368.710171 
L 264.279561 369.215776 
L 264.890821 370.079933 
L 264.810065 370.333609 
L 264.586743 370.355233 
L 264.295261 370.88316 
L 264.33251 371.181755 
L 264.592994 371.33141 
L 264.695189 371.710803 
L 264.653268 372.066339 
L 264.469863 372.146334 
L 264.418242 372.29688 
L 264.791718 372.893546 
L 265.127847 373.515035 
L 265.559409 373.5633 
L 266.151244 373.373343 
L 266.112569 373.292767 
L 266.259045 373.007699 
L 265.920377 372.682616 
L 266.078395 372.615385 
L 266.026809 372.48837 
L 266.238103 372.306698 
L 266.734997 372.425015 
L 267.065913 372.047173 
L 267.24743 372.277842 
L 267.19216 372.587849 
L 267.530342 372.854107 
L 268.071457 372.478444 
L 268.175463 372.570946 
L 267.93487 373.051457 
L 268.510512 373.181304 
L 268.496333 373.295914 
L 268.259492 373.329212 
L 268.231615 373.478284 
L 268.687238 373.893738 
L 268.542056 374.007423 
L 268.441887 374.683171 
L 268.556694 374.970298 
L 268.845532 375.087578 
L 268.789081 375.476792 
L 269.745453 375.438338 
L 270.81097 374.620831 
L 271.37585 374.71718 
L 271.804343 375.110673 
L 271.854107 375.420916 
L 272.193614 375.653475 
L 272.111193 375.916445 
L 272.29338 376.067309 
L 272.495639 377.293474 
L 272.62735 377.341191 
L 273.053126 378.542153 
L 273.562235 378.892906 
L 273.677471 379.181582 
L 273.578246 379.681983 
L 274.006989 380.946842 
L 273.950488 381.324759 
L 274.193666 381.830869 
L 275.047508 382.365782 
L 275.555053 382.440144 
L 275.630676 382.646935 
L 276.37117 382.883928 
L 277.023797 382.867823 
L 278.504525 382.45924 
L 278.865599 382.715132 
L 278.836879 382.875238 
L 279.082089 383.107484 
L 278.986378 383.335145 
L 279.366552 383.328799 
L 279.460299 383.192393 
L 279.709146 383.19555 
L 279.59766 383.710861 
L 279.449359 383.995643 
L 279.63978 384.457648 
L 279.108391 386.058322 
L 279.224299 386.233022 
L 279.154251 386.576563 
L 279.563889 387.085674 
L 279.861277 387.249623 
L 279.890868 387.440177 
L 280.99522 388.460327 
L 280.796159 388.722247 
L 280.451232 390.083552 
L 280.737958 390.923514 
L 280.89293 390.994072 
L 280.928554 391.223858 
L 280.624653 391.691308 
L 280.587929 391.985102 
L 280.717862 392.299398 
L 281.011959 392.612233 
L 281.487087 392.6862 
L 253.567246 392.663332 
L 253.730461 392.511864 
L 254.107136 391.873687 
L 253.672952 391.771428 
L 253.412584 391.490529 
L 252.775722 391.490552 
L 252.645887 390.277729 
L 252.544609 389.982757 
L 252.979968 389.319509 
L 253.592998 388.115942 
L 253.414624 387.529229 
L 253.237123 387.370965 
L 253.006285 387.370965 
L 252.794719 387.54542 
L 252.55682 387.477986 
L 252.233867 387.178564 
L 253.611746 383.977309 
L 254.002211 382.822407 
L 253.823836 382.484019 
L 253.381095 382.209914 
L 253.451348 381.542305 
L 253.131322 381.240642 
L 253.060497 381.044779 
L 252.544609 380.600591 
L 251.476535 380.507074 
L 251.587387 379.758091 
L 251.537903 379.228799 
L 251.158707 378.540537 
L 250.963719 378.451349 
L 249.860243 378.489822 
L 249.627797 378.634736 
L 249.077826 378.51689 
L 249.000664 377.712353 
L 248.507155 377.54948 
L 248.168658 377.065697 
L 247.462476 376.970689 
L 247.438885 376.259134 
L 247.151986 375.959677 
L 247.137404 375.587734 
L 246.946788 375.199506 
L 246.50142 375.337019 
L 246.165409 374.623472 
L 246.272113 374.188004 
L 245.907194 373.796241 
L 245.514295 373.817132 
L 245.463595 373.44961 
L 244.675132 372.707505 
L 243.830475 372.696138 
L 243.529686 372.785326 
L 243.252594 372.594701 
L 242.857568 371.60608 
L 242.560866 371.631136 
L 242.203909 371.928326 
L 241.943218 371.236271 
L 241.96978 370.532906 
L 241.522095 369.454788 
L 241.348966 369.154873 
L 240.110825 368.753748 
L 239.769351 369.11953 
L 239.402244 368.659852 
L 238.933911 367.154277 
L 238.751164 367.041482 
L 238.041937 367.012608 
L 237.095573 366.208215 
L 236.018707 365.003287 
L 234.029478 363.067395 
L 231.188596 362.183391 
L 229.407471 361.974412 
L 228.436902 360.654089 
L 227.288696 359.798238 
L 225.446501 359.216598 
L 223.716322 357.859487 
L 223.168725 357.723146 
L 222.714532 358.046547 
L 221.123448 356.814759 
L 220.670471 356.310848 
L 220.061291 356.243748 
L 218.438642 354.94302 
L 218.585191 352.881669 
L 218.388476 351.887552 
L 217.434499 350.824237 
L 217.042774 350.688708 
L 216.076577 350.637119 
L 215.997008 350.383547 
L 216.443819 348.877853 
L 216.596874 347.705293 
L 216.397476 346.912233 
L 216.150025 346.441813 
L 216.273314 344.532153 
L 216.080949 343.590439 
L 215.435809 342.250777 
L 214.819859 341.77272 
L 213.380843 341.095815 
L 212.467984 341.073081 
L 213.293405 340.345591 
L 213.361607 340.033435 
L 213.223454 339.738767 
L 212.53094 339.105711 
L 212.17419 339.006031 
L 212.761778 340.193448 
L 212.304985 340.412991 
L 212.169945 340.230401 
L 211.882145 340.033435 
L 211.614583 340.359581 
L 211.625076 340.541454 
L 211.808697 340.621023 
L 212.015926 340.87372 
L 212.37403 341.973811 
L 211.841874 341.977921 
L 211.31685 340.213534 
L 210.881211 339.390044 
L 211.270949 336.219362 
L 211.147661 334.004541 
L 210.477881 332.221667 
L 209.669445 332.100557 
L 208.671673 331.262451 
L 208.162433 331.212345 
L 206.572871 329.135958 
L 206.176774 328.984689 
L 205.33581 329.193588 
L 204.731258 329.145276 
L 204.625604 328.437842 
L 204.93166 327.617209 
L 205.290146 325.015849 
L 204.600256 323.489171 
L 202.180659 320.932112 
L 201.018769 319.195933 
L 200.891109 319.121611 
L 200.358607 318.596104 
L 200.07006 318.492052 
L 199.357435 318.078468 
L 199.056646 317.809157 
L 198.850291 317.432296 
L 197.421543 316.331444 
L 197.304376 316.03765 
L 197.386568 315.791073 
L 197.304376 315.801566 
L 198.089575 315.753474 
L 197.667246 315.289175 
L 197.848244 314.615898 
L 198.013503 314.0423 
L 197.862234 313.638334 
L 197.42679 313.10933 
L 197.108513 312.989539 
L 196.568102 312.928786 
L 195.814754 312.03965 
L 196.708044 312.214833 
L 197.352467 312.584698 
L 197.729327 312.662518 
L 198.108811 312.428183 
L 198.624517 311.623236 
L 198.831349 310.530264 
L 198.792307 310.094481 
L 198.62295 309.778792 
L 197.40489 309.538249 
L 197.01073 309.081069 
L 196.139297 308.79218 
L 195.72047 308.659857 
L 195.65266 307.469538 
L 195.39559 307.195855 
L 194.665478 307.175744 
L 193.840057 307.007862 
L 193.343405 306.438636 
L 193.130055 305.97696 
L 192.881729 303.881056 
L 192.112269 302.003749 
L 191.561406 301.41004 
L 191.167058 301.204559 
L 190.238459 301.021813 
L 189.914062 300.767366 
L 187.906471 296.95067 
L 187.774762 295.695962 
L 187.761982 295.293138 
L 213.202897 293.377249 
L 239.362255 291.428373 
L 239.026893 292.340625 
L 238.775927 292.702638 
L 238.775927 292.702638 
" clip-path="url(#p8eccdfa603)" style="fill: none; stroke: #000000; stroke-width: 0.5; stroke-linejoin: miter"/>
   </g>
   <g id="patch_19">
    <path d="M 209.47348 339.337579 
L 209.301489 339.270256 
L 209.299844 339.132627 
L 209.481065 339.032676 
L 209.584184 339.051513 
L 209.699632 339.207666 
L 209.701018 339.325653 
L 209.47348 339.337579 
" clip-path="url(#p8eccdfa603)" style="fill: none; stroke: #000000; stroke-width: 0.5; stroke-linejoin: miter"/>
   </g>
   <g id="patch_20">
    <path d="M 185.251041 298.027473 
L 185.307313 298.184036 
L 185.307963 298.356421 
L 185.224485 298.364478 
L 185.149321 298.121767 
L 185.120879 297.965133 
L 185.055611 297.886989 
L 184.999111 297.675559 
L 185.129208 297.722224 
L 185.185242 297.80826 
L 185.251041 298.027473 
" clip-path="url(#p8eccdfa603)" style="fill: none; stroke: #000000; stroke-width: 0.5; stroke-linejoin: miter"/>
   </g>
   <g id="patch_21">
    <path d="M 252.312502 392.179897 
L 252.587403 392.013928 
L 252.891331 392.154297 
L 253.252996 392.473447 
L 253.385301 392.665351 
L 252.804947 392.667897 
L 252.616402 392.384062 
L 252.38491 392.435139 
L 252.269136 392.320294 
L 252.312502 392.179897 
" clip-path="url(#p8eccdfa603)" style="fill: none; stroke: #000000; stroke-width: 0.5; stroke-linejoin: miter"/>
   </g>
   <g id="patch_22">
    <path d="M 252.341621 390.826851 
L 252.471778 391.375739 
L 252.39931 391.745928 
L 252.008601 392.001313 
L 251.777218 392.205583 
L 251.704982 392.384267 
L 251.676155 392.575696 
L 251.747852 392.670514 
L 250.468816 392.674118 
L 250.927869 392.186211 
L 251.584533 391.331935 
L 252.029596 390.870259 
L 252.341621 390.826851 
" clip-path="url(#p8eccdfa603)" style="fill: none; stroke: #000000; stroke-width: 0.5; stroke-linejoin: miter"/>
   </g>
   <g id="patch_23">
    <path d="M 281.069508 379.402128 
L 281.168002 379.559055 
L 281.487571 379.719778 
L 281.561393 379.891068 
L 281.727031 379.972137 
L 281.519778 380.168051 
L 281.26463 380.300883 
L 281.112588 380.188184 
L 281.055432 380.081682 
L 280.93773 380.062607 
L 280.74873 379.567292 
L 280.477058 379.384371 
L 280.074118 379.226419 
L 279.787831 378.919452 
L 279.247272 378.850461 
L 279.302504 378.702732 
L 279.159811 378.586213 
L 279.040143 378.418288 
L 278.888592 378.271615 
L 278.689168 378.11087 
L 279.398577 378.236267 
L 280.597677 378.995335 
L 280.89228 379.288733 
L 281.069508 379.402128 
" clip-path="url(#p8eccdfa603)" style="fill: none; stroke: #000000; stroke-width: 0.5; stroke-linejoin: miter"/>
   </g>
   <g id="patch_24">
    <path d="M 285.91629 376.90505 
L 286.1203 377.018078 
L 286.146825 377.25644 
L 286.261164 377.367939 
L 286.162789 377.591342 
L 286.167969 377.919746 
L 285.991749 378.227075 
L 285.602423 378.3106 
L 285.116414 378.210003 
L 284.908491 378.288409 
L 284.981862 378.126224 
L 284.738864 377.519113 
L 284.719373 377.077956 
L 284.987794 377.030427 
L 285.141765 376.938945 
L 285.648934 377.010558 
L 285.91629 376.90505 
" clip-path="url(#p8eccdfa603)" style="fill: none; stroke: #000000; stroke-width: 0.5; stroke-linejoin: miter"/>
   </g>
   <g id="patch_25">
    <path d="M 265.493018 369.403147 
L 265.47028 369.49317 
L 265.573112 369.566363 
L 265.542544 369.664311 
L 265.533747 369.839793 
L 265.658831 369.976739 
L 265.635666 370.099855 
L 265.731751 370.145815 
L 265.738204 370.275587 
L 265.841607 370.334563 
L 265.833601 370.412376 
L 265.633408 370.404743 
L 265.515269 370.332723 
L 265.560489 370.235662 
L 265.472156 370.14435 
L 265.35425 370.039875 
L 265.399523 369.936315 
L 265.459289 369.878279 
L 265.370672 369.825861 
L 265.334693 369.676455 
L 265.343069 369.54678 
L 265.209999 369.487643 
L 265.174017 369.338278 
L 265.078595 369.201576 
L 265.257077 369.131348 
L 265.4062 369.143333 
L 265.560778 369.204102 
L 265.574964 369.29486 
L 265.493018 369.403147 
" clip-path="url(#p8eccdfa603)" style="fill: none; stroke: #000000; stroke-width: 0.5; stroke-linejoin: miter"/>
   </g>
   <g id="patch_26">
    <path d="M 273.899998 370.621932 
L 273.948899 370.889761 
L 273.939634 371.518454 
L 273.757091 371.478068 
L 273.489121 371.177738 
L 273.245919 371.097316 
L 272.986146 370.803597 
L 272.307478 370.567023 
L 272.121394 370.179019 
L 271.758819 369.994239 
L 271.47493 369.90472 
L 271.171093 369.692062 
L 271.015012 369.423311 
L 270.858426 369.300031 
L 270.756516 368.974173 
L 270.481097 368.665829 
L 270.116668 368.321216 
L 269.945654 368.066968 
L 269.690107 368.041816 
L 269.506485 367.842289 
L 269.207371 367.726061 
L 268.799857 367.515901 
L 268.625856 367.154023 
L 268.085672 366.946468 
L 267.691924 366.629794 
L 267.143984 365.967997 
L 267.219155 365.769373 
L 267.067028 365.452109 
L 266.733616 365.174121 
L 266.41468 365.18803 
L 266.050239 365.201441 
L 265.746155 365.056237 
L 265.593858 364.778566 
L 265.562933 364.381909 
L 265.410821 364.170712 
L 265.136687 363.998505 
L 264.983906 363.680918 
L 264.816009 363.5614 
L 264.723295 363.308624 
L 264.403243 363.057478 
L 264.358017 362.886552 
L 264.115056 362.636809 
L 263.747173 362.38306 
L 263.654443 361.866682 
L 263.762294 361.367766 
L 264.079344 360.902019 
L 264.273852 360.275422 
L 264.180232 359.914539 
L 264.133109 359.581965 
L 264.376852 359.48901 
L 264.407889 359.62212 
L 264.606444 359.72831 
L 264.895551 359.621096 
L 265.154263 359.513979 
L 265.153791 359.367524 
L 265.428218 359.380229 
L 265.428903 359.632853 
L 265.672867 359.685363 
L 266.160704 359.750567 
L 266.450637 360.034781 
L 267.106546 360.600811 
L 267.395297 361.162633 
L 267.914814 361.314658 
L 267.929135 361.489783 
L 268.127267 361.674766 
L 268.111804 361.834652 
L 268.386821 362.124239 
L 268.646028 362.547863 
L 268.600375 362.733652 
L 268.89002 362.931728 
L 268.646714 363.144078 
L 268.388049 363.422986 
L 268.327428 363.794251 
L 268.403776 363.992834 
L 268.449315 364.523142 
L 268.979884 364.827907 
L 269.818096 364.946122 
L 270.015263 365.158176 
L 270.273799 365.158106 
L 270.456912 364.972436 
L 270.730377 364.985706 
L 270.912064 365.052076 
L 271.291448 364.985946 
L 271.655316 364.972904 
L 271.973916 365.052583 
L 272.479067 364.959701 
L 272.784976 365.251427 
L 272.563935 365.609412 
L 272.58295 366.073194 
L 272.722909 366.325569 
L 272.707232 366.749788 
L 272.706353 367.001635 
L 272.844129 367.121344 
L 272.737476 367.346672 
L 272.676065 367.810697 
L 272.660535 368.407509 
L 272.751415 368.606537 
L 273.00977 369.031466 
L 273.086316 369.177814 
L 273.024419 369.389461 
L 273.221092 369.760902 
L 273.437197 369.790552 
L 273.723566 369.881876 
L 273.875716 369.975205 
L 274.212714 370.043718 
L 273.899998 370.621932 
" clip-path="url(#p8eccdfa603)" style="fill: none; stroke: #000000; stroke-width: 0.5; stroke-linejoin: miter"/>
   </g>
   <g id="patch_27">
    <path d="M 380.896188 311.498466 
L 379.228261 311.494024 
L 379.234923 321.170665 
L 361.342834 321.171776 
L 361.342834 321.083521 
L 361.360147 199.277652 
L 491.278398 199.277652 
L 491.290465 210.013718 
L 490.390721 210.026833 
L 490.399115 211.087114 
L 489.886025 306.681853 
L 412.599363 306.711757 
L 412.615627 307.074802 
L 413.066286 307.850733 
L 413.398902 309.177527 
L 413.928256 309.834366 
L 413.768243 309.994378 
L 414.118173 310.431397 
L 414.943943 310.754045 
L 415.954303 311.655042 
L 415.714996 311.578419 
L 380.896188 311.498466 
L 380.896188 311.498466 
" clip-path="url(#p8eccdfa603)" style="fill: none; stroke: #000000; stroke-width: 0.5; stroke-linejoin: miter"/>
   </g>
   <g id="patch_28">
    <path d="M 318.304662 91.83253 
L 318.311483 113.321449 
L 361.366443 113.321449 
L 361.360147 199.277652 
L 254.053527 199.206302 
L 254.003163 91.827283 
L 318.304662 91.83253 
L 318.304662 91.83253 
" clip-path="url(#p8eccdfa603)" style="fill: none; stroke: #000000; stroke-width: 0.5; stroke-linejoin: miter"/>
   </g>
   <g id="patch_29">
    <path d="M 160.706159 289.002861 
L 160.334344 289.097438 
L 160.276736 289.260442 
L 160.121969 289.316402 
L 159.828758 289.475085 
L 159.742108 289.465272 
L 159.541746 289.163377 
L 159.293599 289.122604 
L 158.770385 288.70781 
L 158.434339 288.562076 
L 158.235599 288.439066 
L 158.071811 288.124869 
L 158.032622 287.883774 
L 157.784293 287.690414 
L 157.546125 287.304885 
L 157.409491 287.254519 
L 157.209116 286.975195 
L 157.181828 286.578922 
L 157.106311 286.402277 
L 156.956159 286.236871 
L 156.593916 285.895284 
L 156.500261 285.491836 
L 156.35309 285.15767 
L 156.202539 284.929535 
L 155.891269 284.920279 
L 155.913387 284.566151 
L 156.161039 284.471064 
L 156.286387 284.58526 
L 156.559139 284.531782 
L 156.834148 284.718599 
L 156.810546 284.83366 
L 156.924122 285.093181 
L 157.147453 285.195334 
L 157.249267 285.538384 
L 157.873011 286.128268 
L 158.12226 286.489993 
L 158.57055 286.913954 
L 158.932072 287.05965 
L 159.277557 287.429159 
L 160.21344 288.146173 
L 160.753374 288.502791 
L 161.252285 288.929001 
L 161.420433 289.125786 
L 161.148499 289.165133 
L 160.706159 289.002861 
" clip-path="url(#p8eccdfa603)" style="fill: none; stroke: #000000; stroke-width: 0.5; stroke-linejoin: miter"/>
   </g>
   <g id="patch_30">
    <path d="M 137.944882 280.025256 
L 138.136737 280.258467 
L 138.139436 280.41545 
L 138.035312 280.505011 
L 137.871346 280.51679 
L 137.661401 280.588034 
L 137.403277 280.581336 
L 137.309854 280.602135 
L 137.003883 280.547082 
L 136.921477 280.528474 
L 136.828007 280.559096 
L 136.674373 280.482508 
L 136.403926 280.456484 
L 136.225948 280.33119 
L 135.778849 280.25841 
L 135.290599 279.911312 
L 135.288572 279.803354 
L 135.133383 279.66795 
L 135.166194 279.539908 
L 135.032373 279.296202 
L 135.054548 279.227193 
L 135.386472 279.389795 
L 135.641453 279.209808 
L 135.806825 279.208492 
L 136.038539 279.077411 
L 136.441746 279.288466 
L 136.774648 279.510486 
L 136.973286 279.487637 
L 137.1038 279.56467 
L 137.540604 279.716356 
L 137.944882 280.025256 
" clip-path="url(#p8eccdfa603)" style="fill: none; stroke: #000000; stroke-width: 0.5; stroke-linejoin: miter"/>
   </g>
   <g id="patch_31">
    <path d="M 157.463394 276.003774 
L 157.293557 275.926178 
L 157.123844 275.919068 
L 156.944619 275.927656 
L 156.783252 275.841657 
L 156.651844 275.819081 
L 156.632944 275.764317 
L 156.624629 275.631974 
L 156.518648 275.591948 
L 156.404039 275.49766 
L 156.29177 275.342264 
L 156.156944 275.200221 
L 156.02296 275.097838 
L 155.984342 274.987838 
L 156.135743 274.979582 
L 156.352551 275.009706 
L 156.541134 274.992957 
L 156.721164 275.031943 
L 156.854159 275.055795 
L 157.23018 275.021366 
L 157.343274 275.005155 
L 157.446717 274.973029 
L 157.570453 275.129941 
L 157.693473 275.200023 
L 157.835953 275.348993 
L 158.04417 275.458618 
L 158.223642 275.520259 
L 158.224144 275.598882 
L 158.243752 275.716813 
L 158.366448 275.739946 
L 158.422717 275.700569 
L 158.525983 275.669304 
L 158.554067 275.621663 
L 158.713706 275.614103 
L 158.808288 275.731894 
L 158.903345 275.722336 
L 159.016206 275.777452 
L 159.129738 275.879173 
L 159.290609 275.948973 
L 159.403706 276.019414 
L 159.564516 276.002683 
L 159.638751 276.050114 
L 159.733512 276.025888 
L 159.912377 276.033089 
L 160.485501 276.290631 
L 160.600482 276.258445 
L 160.740149 276.407454 
L 160.809432 276.414834 
L 160.924334 276.414321 
L 161.027939 276.453304 
L 161.047359 276.524026 
L 161.077342 276.657679 
L 161.019899 276.744327 
L 161.047645 276.869976 
L 161.153221 276.885556 
L 161.330403 277.120456 
L 161.577589 277.347898 
L 161.832681 277.512274 
L 161.945347 277.73171 
L 161.949015 277.823977 
L 162.025924 277.855676 
L 162.144328 277.849298 
L 162.328902 277.999919 
L 162.421754 278.368476 
L 162.346331 278.380177 
L 162.287681 278.476726 
L 162.421847 278.588285 
L 162.254498 278.663448 
L 162.199031 278.747537 
L 161.95565 278.811925 
L 161.526262 278.670129 
L 161.334369 278.504379 
L 161.139751 278.459181 
L 160.907823 278.363258 
L 160.450112 278.350613 
L 160.141323 278.344774 
L 159.879189 278.425095 
L 159.424257 278.377979 
L 158.999834 278.277248 
L 158.802444 278.07464 
L 158.555908 277.792453 
L 158.441209 277.525466 
L 158.552556 277.312406 
L 158.514628 277.226151 
L 158.645565 277.060354 
L 158.757295 277.012482 
L 158.661628 276.918375 
L 158.491695 276.573229 
L 158.549905 276.518019 
L 158.493469 276.455207 
L 158.510742 276.290521 
L 158.41643 276.211925 
L 158.265541 276.173127 
L 158.13336 276.134575 
L 157.991775 276.119249 
L 157.880938 276.139295 
L 157.770597 276.042393 
L 157.558198 276.01948 
L 157.463394 276.003774 
" clip-path="url(#p8eccdfa603)" style="fill: none; stroke: #000000; stroke-width: 0.5; stroke-linejoin: miter"/>
   </g>
   <g id="patch_32">
    <path d="M 163.721108 269.09439 
L 163.882965 269.584298 
L 163.586669 269.679448 
L 163.684721 269.867234 
L 163.425629 269.831248 
L 163.346167 269.649751 
L 163.393439 269.55505 
L 163.711613 269.450102 
L 163.611178 269.124839 
L 163.50674 269.193782 
L 163.565763 269.407593 
L 163.362585 269.468088 
L 163.189539 269.565272 
L 163.141317 269.335166 
L 163.213371 269.17638 
L 163.482352 268.938844 
L 163.582682 268.950173 
L 163.685245 268.904453 
L 163.918854 268.829891 
L 164.092879 268.780536 
L 164.150018 268.982169 
L 163.721108 269.09439 
" clip-path="url(#p8eccdfa603)" style="fill: none; stroke: #000000; stroke-width: 0.5; stroke-linejoin: miter"/>
   </g>
   <g id="patch_33">
    <path d="M 124.973894 263.658373 
L 125.254001 263.964276 
L 125.804787 264.190996 
L 126.404975 264.095575 
L 126.439912 264.613375 
L 126.613729 264.751762 
L 126.653755 265.005643 
L 125.991932 264.99785 
L 125.576738 265.155276 
L 124.916199 265.571559 
L 124.451992 265.635945 
L 124.251366 265.752463 
L 123.807154 265.741158 
L 123.641419 265.894824 
L 123.622506 266.036604 
L 123.314903 265.994782 
L 123.117313 265.8285 
L 122.703976 265.638037 
L 122.21028 265.411461 
L 122.019942 265.085032 
L 121.913344 264.926495 
L 121.727432 264.769589 
L 121.466032 264.33151 
L 121.270151 264.240496 
L 121.138353 263.988317 
L 120.887176 263.918373 
L 120.643593 263.71608 
L 120.900422 263.55113 
L 121.307616 263.513783 
L 121.663486 263.639398 
L 121.990878 263.548659 
L 122.310141 263.580984 
L 122.578266 263.397514 
L 122.85772 263.21389 
L 123.059354 263.208974 
L 123.906716 263.356495 
L 124.426484 263.205345 
L 124.740281 262.928346 
L 125.035455 262.939351 
L 125.07444 263.136868 
L 124.910842 263.404959 
L 124.973894 263.658373 
" clip-path="url(#p8eccdfa603)" style="fill: none; stroke: #000000; stroke-width: 0.5; stroke-linejoin: miter"/>
   </g>
   <g id="patch_34">
    <path d="M 135.700526 263.657631 
L 135.449362 263.862602 
L 135.002292 263.878126 
L 134.805203 263.97656 
L 134.046141 264.012877 
L 133.602687 264.03658 
L 133.33998 264.039819 
L 133.138724 264.104535 
L 133.004848 264.210976 
L 132.81493 264.248866 
L 132.754137 264.301718 
L 132.426885 264.412077 
L 132.291407 264.413451 
L 132.157912 264.563879 
L 132.011332 264.618461 
L 131.523507 264.547221 
L 131.281646 264.550402 
L 131.157638 264.656982 
L 130.882401 264.60849 
L 130.534202 264.604905 
L 130.248091 264.530855 
L 129.912019 264.614085 
L 129.740268 264.459485 
L 129.411344 264.39412 
L 129.190797 264.441205 
L 128.848177 264.192981 
L 128.689203 264.169079 
L 128.5355 263.926194 
L 128.4687 263.700797 
L 128.41072 263.551701 
L 128.625321 263.216256 
L 128.622319 263.042282 
L 128.428216 262.921386 
L 128.150473 262.674422 
L 127.841373 262.539194 
L 127.721904 262.503895 
L 127.669759 262.565301 
L 127.521086 262.541215 
L 127.423296 262.446042 
L 127.610831 262.303585 
L 127.681148 262.162023 
L 127.762697 262.046538 
L 128.033392 262.143636 
L 128.411251 262.143654 
L 129.069501 262.224216 
L 129.526185 262.373914 
L 129.758028 262.556682 
L 130.131391 262.624009 
L 130.545182 262.53287 
L 130.757635 262.539862 
L 131.157137 262.54103 
L 131.295287 262.616826 
L 131.47882 262.619637 
L 131.635417 262.742566 
L 131.73981 262.696854 
L 132.176283 262.83229 
L 132.349063 262.997607 
L 132.594329 263.133804 
L 132.745226 263.313289 
L 132.924382 263.294394 
L 133.147564 263.380042 
L 133.410568 263.330191 
L 133.866457 263.4473 
L 134.243449 263.320341 
L 134.409092 263.106931 
L 134.362922 262.888353 
L 134.823612 262.672043 
L 135.107978 262.651303 
L 135.333116 262.551435 
L 136.029548 262.850146 
L 136.266521 263.003418 
L 136.096074 263.19774 
L 135.811555 263.306992 
L 135.771564 263.447682 
L 135.700526 263.657631 
" clip-path="url(#p8eccdfa603)" style="fill: none; stroke: #000000; stroke-width: 0.5; stroke-linejoin: miter"/>
   </g>
   <g id="patch_35">
    <path d="M 119.143471 262.879563 
L 119.294319 262.999438 
L 119.39638 263.173057 
L 119.358887 263.349195 
L 118.900935 263.33998 
L 118.43635 263.331537 
L 118.238499 263.42318 
L 117.950863 263.358564 
L 117.766971 263.221802 
L 117.543655 263.182326 
L 117.254596 263.065229 
L 117.061878 263.042582 
L 116.877599 263.20424 
L 116.56757 263.105094 
L 116.397996 263.090978 
L 116.331068 262.969581 
L 116.572438 262.912156 
L 117.060165 262.56924 
L 117.31519 262.63455 
L 117.516397 262.59526 
L 117.817955 262.431676 
L 118.054988 262.207898 
L 118.053075 262.102306 
L 118.200389 262.199932 
L 118.270153 262.344116 
L 118.32826 262.482973 
L 118.233102 262.599293 
L 118.333511 262.728583 
L 118.579257 262.741234 
L 118.768698 262.693728 
L 118.886134 262.726566 
L 119.143471 262.879563 
" clip-path="url(#p8eccdfa603)" style="fill: none; stroke: #000000; stroke-width: 0.5; stroke-linejoin: miter"/>
   </g>
   <g id="patch_36">
    <path d="M 235.327915 291.70377 
L 187.761982 295.293138 
L 187.506582 293.486108 
L 187.231445 292.829687 
L 186.875569 292.331286 
L 186.402526 292.047985 
L 185.63773 292.004367 
L 185.590214 291.735923 
L 185.722509 291.534151 
L 186.027992 291.387879 
L 186.347267 291.381515 
L 186.41381 291.548348 
L 186.839321 291.701574 
L 186.922786 292.024377 
L 187.62969 293.158828 
L 187.784243 293.679391 
L 187.977564 293.819169 
L 188.229093 293.67844 
L 188.252153 293.384948 
L 187.874358 292.693742 
L 187.89317 292.307457 
L 187.588194 291.894093 
L 187.30634 291.7992 
L 186.639789 291.352905 
L 186.697923 291.101452 
L 185.941091 291.132568 
L 185.339921 291.520681 
L 185.367253 292.328663 
L 185.179913 292.222055 
L 184.917818 291.638772 
L 184.916102 289.86557 
L 184.356509 288.717861 
L 184.567274 288.427939 
L 184.733823 288.516265 
L 184.866301 288.365167 
L 185.000237 287.698698 
L 184.443164 285.073987 
L 184.303999 284.716256 
L 184.045392 284.457683 
L 183.527811 282.89766 
L 182.673564 281.663275 
L 179.516195 278.02602 
L 177.636803 276.838909 
L 176.03755 275.509841 
L 174.651648 274.812081 
L 173.764146 273.853754 
L 171.535063 272.488867 
L 170.46128 272.165709 
L 169.423692 271.562861 
L 167.016262 269.521311 
L 165.682988 268.924172 
L 165.230467 268.827091 
L 164.974881 268.951216 
L 164.509074 268.815263 
L 164.951564 269.295524 
L 164.982278 269.491329 
L 164.817377 269.505165 
L 164.610729 269.343198 
L 164.605006 269.186127 
L 164.45481 269.278278 
L 164.004245 268.701869 
L 163.366817 268.888988 
L 163.170212 269.035235 
L 163.014291 268.970362 
L 163.078307 269.106317 
L 162.981058 269.35437 
L 163.112371 269.858682 
L 162.892433 269.838053 
L 162.907818 269.935932 
L 163.029038 270.021264 
L 162.887092 270.01507 
L 162.701923 270.118035 
L 162.496161 269.975338 
L 161.337163 269.622575 
L 161.176647 269.420101 
L 160.107473 269.291358 
L 159.876642 268.816008 
L 159.773799 268.602583 
L 159.897364 268.383114 
L 160.16631 268.228823 
L 160.180646 268.080995 
L 160.458294 267.916587 
L 160.54243 267.658876 
L 160.551281 267.265752 
L 160.373241 266.936455 
L 159.406721 264.827463 
L 158.590044 263.761586 
L 157.270595 262.904687 
L 155.274587 262.958267 
L 154.442497 262.921128 
L 154.346379 263.088534 
L 153.26357 263.040945 
L 152.879645 263.055052 
L 152.713063 263.187613 
L 152.030033 263.317745 
L 151.90595 263.584144 
L 151.683401 263.718035 
L 151.620894 263.75306 
L 151.129976 263.292824 
L 150.424103 263.000365 
L 149.564349 262.877544 
L 148.830807 262.811973 
L 148.460573 262.711885 
L 147.529461 262.329524 
L 147.299239 262.319464 
L 146.650723 261.942971 
L 146.164086 261.902363 
L 145.320563 261.53109 
L 144.898957 261.45965 
L 145.309968 261.613691 
L 145.184694 261.710327 
L 144.708255 261.579657 
L 142.957274 260.467365 
L 142.938824 260.560215 
L 142.807893 260.613625 
L 142.230275 259.655468 
L 141.813509 258.87141 
L 141.910276 258.725799 
L 141.801826 258.689271 
L 141.685903 258.261517 
L 141.242904 257.839959 
L 140.73841 257.785114 
L 139.410418 256.857972 
L 139.003954 256.807951 
L 138.666197 256.516311 
L 137.368678 255.66447 
L 137.166304 255.693585 
L 136.838803 255.488619 
L 136.367258 255.42542 
L 136.096024 255.2562 
L 135.936762 255.239706 
L 135.266964 254.845982 
L 134.970804 254.871794 
L 134.668582 254.739667 
L 133.959328 254.756129 
L 133.751943 254.81719 
L 132.902072 254.835615 
L 132.609112 255.029039 
L 132.626221 255.069561 
L 131.722618 255.199227 
L 131.259381 255.041889 
L 130.218023 254.755829 
L 130.098029 254.793488 
L 129.400435 254.865745 
L 129.327951 255.061088 
L 129.105856 254.955484 
L 128.591934 255.002626 
L 128.339859 254.734458 
L 128.119916 254.705587 
L 127.670228 254.426975 
L 126.501143 254.130246 
L 125.197476 253.787986 
L 124.01943 253.88102 
L 123.117064 253.58198 
L 122.290624 253.640837 
L 119.683256 253.673053 
L 115.826535 254.064422 
L 115.024905 252.536526 
L 113.564825 251.845257 
L 112.626092 251.865233 
L 112.1357 251.402841 
L 112.062692 251.154766 
L 112.433752 250.241083 
L 112.960489 249.141804 
L 113.024977 248.595299 
L 112.225707 247.44029 
L 112.447692 246.937414 
L 112.716421 245.611571 
L 112.755946 245.302753 
L 112.613792 245.10297 
L 112.225707 244.84686 
L 112.131966 244.505293 
L 111.909286 244.374789 
L 111.636939 244.425027 
L 111.525358 244.23865 
L 112.430313 240.663796 
L 112.126027 239.256034 
L 111.561445 239.023191 
L 111.392417 238.96224 
L 110.804829 238.507559 
L 109.74674 238.556953 
L 109.664397 238.830032 
L 109.533455 238.807951 
L 108.989603 238.404381 
L 107.722821 237.890996 
L 106.942664 237.227457 
L 106.69433 236.884191 
L 106.738674 236.373871 
L 106.921824 236.106937 
L 107.335194 235.151611 
L 107.455264 234.474434 
L 107.636394 234.783351 
L 107.598454 235.34228 
L 107.863588 235.281499 
L 107.889008 235.124156 
L 108.117954 235.029223 
L 107.497812 234.218769 
L 107.358436 234.279151 
L 107.265021 233.541742 
L 106.916433 232.94821 
L 106.468052 232.619107 
L 105.6513 232.661197 
L 105.280113 232.438438 
L 104.379802 232.352361 
L 102.307206 230.439628 
L 101.68277 229.342963 
L 101.416196 229.249665 
L 100.854772 228.564672 
L 100.346231 228.50673 
L 100.304026 228.663157 
L 99.842763 228.331985 
L 98.299498 227.964914 
L 98.296025 227.60758 
L 97.854613 227.043472 
L 97.734825 226.91423 
L 97.552629 225.821961 
L 97.248271 225.349731 
L 95.707545 224.114288 
L 95.612589 223.883819 
L 95.350704 223.804854 
L 94.541343 223.196484 
L 94.551735 222.83156 
L 94.346935 222.619781 
L 94.031996 221.49678 
L 93.965896 221.143994 
L 93.607075 220.692408 
L 92.867729 220.439848 
L 92.316423 220.330164 
L 91.759376 219.675767 
L 91.719387 219.382155 
L 91.210119 218.948174 
L 90.953676 218.332993 
L 90.360505 217.697139 
L 89.369418 216.846822 
L 87.702697 215.898967 
L 87.32844 215.723748 
L 87.081126 215.768495 
L 86.538858 215.40802 
L 86.182109 214.757476 
L 85.722181 214.530136 
L 85.563043 214.326404 
L 85.162296 214.221245 
L 85.248933 214.016473 
L 84.977187 212.24487 
L 84.844884 212.101656 
L 84.477958 210.812432 
L 84.337556 210.699962 
L 84.159871 210.192247 
L 84.22651 209.957138 
L 84.089693 209.712483 
L 83.931645 209.639421 
L 83.96532 209.529609 
L 84.546872 209.343673 
L 84.411127 208.702337 
L 84.288235 208.760526 
L 84.156262 208.624481 
L 83.996933 208.738007 
L 83.478817 208.411331 
L 83.411923 208.219017 
L 83.710519 208.186874 
L 83.86862 207.622573 
L 83.94346 207.56604 
L 84.07338 207.655545 
L 84.344984 207.025685 
L 84.699205 207.147486 
L 84.713429 207.248124 
L 85.242314 207.598103 
L 85.425303 207.826251 
L 85.799585 207.714129 
L 86.488845 207.103848 
L 86.997499 206.080419 
L 87.188725 204.909248 
L 87.466698 205.056903 
L 88.083025 205.245901 
L 88.136065 205.069403 
L 87.838716 204.914389 
L 87.514697 204.822385 
L 87.235024 204.635899 
L 87.522828 203.438118 
L 87.212653 202.797334 
L 86.015975 200.831999 
L 85.034638 199.936985 
L 84.354686 199.739702 
L 84.021089 199.896557 
L 83.559763 200.236262 
L 82.550321 200.07577 
L 82.488754 200.217543 
L 82.464817 200.327058 
L 82.257781 200.278954 
L 82.000555 200.387597 
L 80.728198 200.224312 
L 79.18996 199.378738 
L 77.552176 198.003047 
L 76.772998 197.033622 
L 76.379905 196.766323 
L 75.715133 196.725348 
L 75.746009 196.374636 
L 75.280251 196.039774 
L 75.247781 195.784684 
L 75.069108 195.534041 
L 74.766997 195.356734 
L 74.494148 195.36557 
L 74.314766 195.09339 
L 74.180531 194.398337 
L 74.05599 194.246858 
L 74.015932 193.85168 
L 74.192421 193.49635 
L 74.403282 191.543094 
L 74.222809 191.447889 
L 74.161934 191.216675 
L 73.455436 189.871725 
L 73.354142 189.030737 
L 73.051449 188.601082 
L 72.560429 188.474148 
L 72.362974 188.628555 
L 72.277483 188.678083 
L 72.238567 188.500523 
L 72.003236 188.314128 
L 71.821731 187.85387 
L 71.944488 187.220549 
L 71.831272 186.936221 
L 71.886277 186.49897 
L 72.225153 186.230966 
L 72.348745 185.791954 
L 72.374673 184.978499 
L 71.935627 182.487986 
L 72.311719 182.359563 
L 72.563996 182.279879 
L 72.767733 181.853013 
L 73.049034 181.96844 
L 74.224949 181.859101 
L 74.669938 182.276645 
L 74.68767 182.539148 
L 74.807396 182.648799 
L 74.856551 183.028221 
L 75.387343 183.586453 
L 75.217241 183.910769 
L 74.92004 183.8737 
L 74.851671 184.070314 
L 74.572682 184.009311 
L 74.668973 184.721495 
L 74.836932 184.73177 
L 74.818113 184.942172 
L 74.949667 185.194791 
L 74.746009 185.592319 
L 74.760171 185.704151 
L 75.190116 185.794602 
L 75.395982 186.089931 
L 75.284283 186.198149 
L 75.030156 186.102009 
L 74.966915 186.290216 
L 75.906338 186.607863 
L 76.199071 186.598404 
L 76.220116 186.725525 
L 76.918971 186.92389 
L 77.613122 187.066534 
L 77.857878 187.521527 
L 78.723403 187.777789 
L 78.732089 187.953595 
L 78.550464 188.153396 
L 78.858745 188.199074 
L 79.325371 188.451928 
L 79.596231 188.456808 
L 79.827069 188.601082 
L 80.123486 188.576599 
L 80.853598 189.494705 
L 81.268057 189.631109 
L 81.740226 189.65909 
L 82.17567 189.5734 
L 82.315459 189.316348 
L 81.891495 189.013792 
L 81.894118 188.761095 
L 81.665903 188.492658 
L 81.521629 188.452436 
L 81.000495 188.452436 
L 80.662982 188.142904 
L 80.501571 187.614471 
L 79.862073 186.832137 
L 79.508165 184.995578 
L 78.56379 184.002039 
L 78.399737 184.251318 
L 77.595929 183.741836 
L 77.368483 183.307203 
L 77.656799 183.193371 
L 78.440746 183.296885 
L 78.238795 182.948044 
L 78.14277 183.040882 
L 77.863035 183.042427 
L 76.56198 182.678813 
L 76.615919 182.51736 
L 75.882343 182.460869 
L 75.948675 181.986558 
L 75.685768 181.929497 
L 75.813175 181.83248 
L 76.078913 181.847266 
L 76.203333 181.71517 
L 75.950016 181.63059 
L 76.136286 181.543193 
L 76.656085 181.409972 
L 76.47642 180.730706 
L 76.215102 180.773931 
L 76.178067 180.624064 
L 76.38093 180.571105 
L 76.260694 180.238027 
L 75.941415 179.760366 
L 74.602054 179.768596 
L 74.676395 179.499044 
L 74.490926 179.330768 
L 74.191926 179.24754 
L 73.77236 178.552595 
L 74.459426 178.727616 
L 74.517303 178.423553 
L 75.279433 178.05004 
L 75.055721 177.708213 
L 75.13459 177.519545 
L 75.785655 177.70273 
L 76.580051 177.543989 
L 77.054267 177.248459 
L 77.084397 176.944382 
L 77.639354 176.594883 
L 78.127261 176.529304 
L 79.005512 176.753665 
L 79.384087 177.182011 
L 79.827069 177.276904 
L 80.333338 177.157113 
L 81.247526 176.755398 
L 81.861716 176.644089 
L 82.92037 176.57833 
L 84.316747 176.827426 
L 85.412775 176.901667 
L 85.625573 177.046558 
L 86.506165 177.289002 
L 87.752287 177.452379 
L 88.355081 177.36697 
L 89.408594 177.586437 
L 89.666736 177.588672 
L 89.851559 177.409575 
L 89.563996 177.254313 
L 89.226125 177.309594 
L 88.956801 177.235302 
L 89.009991 177.094468 
L 89.347369 177.027525 
L 89.917487 176.560782 
L 90.073128 175.981938 
L 90.300469 175.918108 
L 91.074818 175.865965 
L 91.084702 175.749576 
L 91.458156 175.649671 
L 92.024446 175.992498 
L 92.106266 176.187836 
L 91.618176 176.513888 
L 91.158512 176.456064 
L 90.908887 176.834181 
L 91.636748 177.314835 
L 91.940269 177.167672 
L 92.072565 176.444188 
L 92.261273 176.3697 
L 93.183148 176.904019 
L 93.47891 176.919907 
L 93.731561 177.116891 
L 94.173078 177.297877 
L 94.925972 177.863617 
L 94.924224 177.700981 
L 94.271931 176.985733 
L 94.039345 176.823098 
L 93.121864 176.487371 
L 92.838919 176.424771 
L 92.7053 176.404902 
L 92.35111 176.042242 
L 92.218887 175.697201 
L 91.514117 175.511518 
L 90.916037 175.56573 
L 90.644977 175.796568 
L 90.206035 175.653169 
L 89.876507 175.792802 
L 89.698016 176.170805 
L 89.683152 176.461102 
L 89.467178 176.69194 
L 88.548894 177.1518 
L 88.002821 177.131609 
L 87.621447 176.852018 
L 87.736903 176.465741 
L 88.184394 176.232801 
L 88.669738 176.090362 
L 89.388484 175.515016 
L 89.71522 175.123635 
L 89.826659 174.621613 
L 89.678758 174.61399 
L 89.347817 175.156683 
L 88.443272 175.899746 
L 87.237705 176.433327 
L 86.312857 176.226435 
L 85.856837 176.395523 
L 85.194324 176.640969 
L 84.795599 176.651998 
L 84.535639 176.529304 
L 84.809322 176.345683 
L 84.97633 176.090362 
L 83.232194 176.011827 
L 82.684732 175.667737 
L 83.307121 175.405704 
L 83.233464 175.094253 
L 82.999744 174.833927 
L 82.657831 174.785839 
L 81.82067 174.910815 
L 81.524334 175.167694 
L 81.592197 175.351505 
L 81.002247 175.973018 
L 80.285676 176.702799 
L 80.20631 176.879028 
L 79.600585 176.851028 
L 79.440429 176.612471 
L 79.045667 176.392373 
L 78.81271 176.457639 
L 78.602309 176.382836 
L 78.201812 176.372227 
L 77.736855 176.235581 
L 77.399909 176.292587 
L 77.172745 176.183499 
L 76.544875 175.459617 
L 74.485331 174.491851 
L 74.182119 174.908413 
L 73.677107 175.134066 
L 73.350969 175.109929 
L 73.166757 175.255399 
L 72.21185 175.345182 
L 72.531938 175.532007 
L 72.637953 176.132533 
L 72.131642 177.415612 
L 73.244948 177.831785 
L 73.436324 178.104313 
L 73.30945 178.213073 
L 72.923049 178.1554 
L 72.812722 178.297739 
L 72.42189 178.433717 
L 72.400031 178.675048 
L 72.684002 179.034846 
L 72.440706 179.170926 
L 72.184444 179.063315 
L 72.187736 179.400338 
L 72.85146 179.691855 
L 72.814122 179.820951 
L 73.576761 180.318541 
L 73.234388 180.527444 
L 73.132754 180.554055 
L 73.142497 180.739674 
L 72.916629 180.642589 
L 72.776257 180.217351 
L 72.282521 180.071256 
L 72.374636 180.416736 
L 72.277123 180.524777 
L 72.696432 180.940645 
L 72.897911 181.39838 
L 72.743758 181.542941 
L 71.776298 181.610295 
L 71.65081 181.730599 
L 71.232245 181.338404 
L 70.677946 180.880997 
L 70.363291 180.775657 
L 70.084727 180.508825 
L 69.66728 180.417091 
L 69.141483 179.958959 
L 68.557141 179.792252 
L 68.03541 179.949474 
L 67.955634 180.103257 
L 67.680598 179.927086 
L 67.3678 179.868197 
L 67.228843 179.501065 
L 66.918624 179.232949 
L 66.559599 179.129907 
L 66.239512 178.89923 
L 65.900956 178.31068 
L 64.968373 177.64818 
L 63.212409 177.035277 
L 62.96349 176.720506 
L 62.9758 176.520957 
L 63.233251 176.38113 
L 62.905069 176.264365 
L 62.653972 176.608008 
L 62.752926 176.898295 
L 62.890643 177.123401 
L 62.30418 177.240633 
L 61.96696 177.472699 
L 61.860428 177.715195 
L 61.939866 177.826762 
L 62.322938 177.955507 
L 61.850691 177.954102 
L 60.927254 177.903054 
L 61.173405 177.769681 
L 61.716471 176.737776 
L 62.5992 174.690414 
L 62.473231 173.996729 
L 62.270477 173.860697 
L 62.273855 173.516963 
L 61.662662 172.852515 
L 61.59677 172.568622 
L 61.834061 172.674305 
L 63.116608 174.02104 
L 64.337314 175.415336 
L 64.882931 175.807935 
L 65.263289 176.23551 
L 65.121639 175.723994 
L 64.731247 175.40584 
L 62.720599 173.071861 
L 62.57756 173.115194 
L 62.498459 172.81204 
L 62.187316 172.689737 
L 62.193712 172.393639 
L 62.064401 172.064397 
L 60.882803 171.06522 
L 60.518807 171.079039 
L 60.175429 171.425993 
L 59.884736 170.855025 
L 60.047607 170.34322 
L 59.992932 170.049597 
L 58.750939 168.129431 
L 57.844217 167.487382 
L 56.087843 166.810971 
L 55.66024 166.418044 
L 54.275866 165.59483 
L 54.17512 165.178566 
L 53.577297 164.630301 
L 52.898085 163.970849 
L 52.62117 163.458232 
L 52.224074 163.215751 
L 52.199451 163.026148 
L 50.934815 161.958707 
L 50.272189 161.738332 
L 49.963817 161.188104 
L 49.508212 160.959002 
L 49.349457 160.697664 
L 48.749098 160.468407 
L 48.269866 160.006517 
L 47.585781 159.529035 
L 47.268763 159.036601 
L 45.911029 158.045416 
L 45.888273 157.73153 
L 45.559374 157.249298 
L 45.932531 157.147261 
L 46.559035 156.128206 
L 46.709685 155.696174 
L 46.392417 154.498619 
L 46.009739 153.437262 
L 45.662754 153.222682 
L 45.711003 152.878232 
L 45.016915 152.126709 
L 44.255928 150.301284 
L 44.380319 149.898992 
L 44.188829 149.746849 
L 44.197171 149.330283 
L 43.790459 148.832697 
L 43.971286 146.754665 
L 44.355319 145.755197 
L 44.9757 144.591854 
L 44.982662 144.181794 
L 44.60911 143.471611 
L 44.528443 141.739674 
L 44.14181 140.999935 
L 43.814253 140.871772 
L 43.680966 140.683699 
L 43.669443 140.354191 
L 43.519024 139.929704 
L 43.525054 139.471079 
L 43.165248 138.384383 
L 42.603144 138.153226 
L 42.011247 137.689153 
L 41.517533 136.783382 
L 40.983359 136.429063 
L 40.480672 135.604106 
L 40.001624 135.277754 
L 39.309298 134.546211 
L 38.770732 134.295425 
L 38.53758 134.348358 
L 38.300411 134.042644 
L 38.298833 133.521979 
L 38.149242 133.141063 
L 37.539995 132.504824 
L 36.046 132.022863 
L 35.300785 131.257842 
L 34.518023 130.843902 
L 33.165185 129.980091 
L 32.998077 129.713046 
L 32.666564 129.605663 
L 32.216838 129.187841 
L 32.289316 128.75621 
L 32.544042 127.953809 
L 32.189585 127.399909 
L 32.158916 126.695776 
L 31.473324 125.870924 
L 31.234962 125.269622 
L 31.689965 124.421297 
L 32.077376 123.269606 
L 32.507901 122.390797 
L 33.416389 121.019759 
L 33.331573 120.920079 
L 34.876567 118.502937 
L 35.066793 118.688354 
L 34.473874 119.616638 
L 34.451944 119.798706 
L 35.17693 120.06274 
L 35.264114 119.977049 
L 35.264432 119.813667 
L 35.432979 119.734403 
L 35.446058 119.560154 
L 35.262387 119.282508 
L 35.355954 119.104449 
L 35.290932 118.964325 
L 35.760353 118.595008 
L 35.768407 118.28093 
L 35.911242 118.19931 
L 36.101314 117.617733 
L 36.508178 117.476686 
L 37.086501 117.461116 
L 37.40953 117.456992 
L 38.150175 117.07507 
L 38.213272 116.576128 
L 37.840654 116.35975 
L 37.471633 116.499359 
L 37.203945 116.368449 
L 37.072387 116.241502 
L 36.698182 116.289192 
L 36.66215 116.51582 
L 36.448039 116.709685 
L 36.366399 117.040673 
L 35.868048 117.56471 
L 35.735971 117.941147 
L 35.230049 118.537607 
L 35.024766 118.332457 
L 35.36843 117.907431 
L 36.233862 116.589459 
L 37.153964 114.684587 
L 37.655607 112.990098 
L 37.634142 112.422629 
L 37.513419 112.281086 
L 36.95689 112.176217 
L 36.872012 112.024975 
L 36.69141 111.452369 
L 36.576421 111.182912 
L 36.668873 110.25888 
L 36.945173 110.202146 
L 37.358018 109.410992 
L 38.571121 104.745493 
L 38.692619 103.951361 
L 38.265735 102.112028 
L 38.559529 101.729921 
L 38.122336 101.517445 
L 37.812803 101.143208 
L 37.739355 100.25046 
L 37.557482 100.040607 
L 37.022358 99.042932 
L 37.052087 98.710665 
L 36.895509 98.138495 
L 36.601673 97.487519 
L 35.990043 97.265832 
L 35.706688 97.430992 
L 35.035087 96.935517 
L 34.378937 96.633269 
L 34.43118 96.367768 
L 34.700649 96.258376 
L 35.000651 95.842948 
L 35.325697 95.052146 
L 35.682798 92.680022 
L 35.561258 92.226216 
L 35.418437 91.838825 
L 35.418437 91.838825 
L 125.967815 91.838825 
L 125.983554 156.312404 
L 166.249571 184.417456 
L 201.218906 210.818503 
L 237.420075 239.104552 
L 241.430886 242.324743 
L 241.659625 244.845074 
L 241.809145 245.097946 
L 242.453393 245.326686 
L 242.869426 245.965687 
L 242.94917 246.225905 
L 242.990091 246.829231 
L 243.2629 247.239493 
L 243.715133 247.473479 
L 244.296425 247.546403 
L 245.897601 250.28026 
L 245.897601 250.933951 
L 246.156245 251.286503 
L 246.673007 251.68365 
L 246.813608 252.134308 
L 247.026609 252.348358 
L 246.837217 253.207705 
L 246.988835 253.607475 
L 247.241183 253.73496 
L 247.797293 253.843034 
L 248.068003 254.072823 
L 248.603652 254.381831 
L 248.924727 254.698709 
L 252.228333 256.696507 
L 252.23253 256.989776 
L 252.358967 257.439385 
L 252.180067 257.730556 
L 250.778776 258.749916 
L 250.098328 259.483876 
L 249.677573 259.577785 
L 247.485137 260.877822 
L 246.705534 261.081904 
L 246.359802 261.381994 
L 246.136309 261.782812 
L 245.957934 262.698819 
L 245.370871 263.461634 
L 245.016744 263.751756 
L 243.830552 264.521915 
L 243.696246 264.998805 
L 243.942823 265.487238 
L 244.363578 265.899074 
L 244.392957 266.091613 
L 244.220878 266.287826 
L 243.829502 266.552765 
L 243.952266 267.949335 
L 244.290654 268.295067 
L 244.290654 268.798714 
L 244.103885 269.020633 
L 244.429681 269.647043 
L 244.286981 269.964446 
L 243.801172 270.514784 
L 243.710411 271.502141 
L 243.623322 271.847874 
L 243.431831 271.974835 
L 243.431831 272.260234 
L 243.549874 272.728731 
L 243.402452 273.155256 
L 242.468083 274.052377 
L 242.26505 274.581206 
L 241.468659 275.8356 
L 241.084629 276.079554 
L 240.5558 276.211237 
L 239.297208 276.386988 
L 239.61566 276.91162 
L 239.915224 277.312439 
L 239.833906 277.497109 
L 239.574738 277.730046 
L 239.370132 278.326028 
L 239.416824 278.647102 
L 240.236824 279.582521 
L 240.455071 280.824324 
L 240.342799 281.75607 
L 240.017528 282.56243 
L 239.945128 283.308981 
L 240.588327 284.0655 
L 241.436657 284.349326 
L 243.387762 284.468942 
L 244.135887 284.812051 
L 244.822106 285.81777 
L 244.737115 286.506087 
L 245.075503 287.878524 
L 245.016744 288.34702 
L 244.77279 288.624026 
L 243.696246 289.373725 
L 243.633815 290.147557 
L 243.610206 290.531587 
L 243.402452 290.854236 
L 242.492741 291.029463 
L 240.24207 290.642284 
L 239.428366 291.148029 
L 239.353372 291.400056 
L 235.327915 291.70377 
L 235.327915 291.70377 
" clip-path="url(#p8eccdfa603)" style="fill: none; stroke: #000000; stroke-width: 0.5; stroke-linejoin: miter"/>
   </g>
  </g>
 </g>
 <defs>
  <clipPath id="p8eccdfa603">
   <rect x="7.2" y="7.2" width="528.769164" height="443.52"/>
  </clipPath>
 </defs>
</svg>
